<svg fill="none" height="48" viewBox="0 0 40 48" width="40" xmlns="http://www.w3.org/2000/svg"><path clip-rule="evenodd" d="M13.715 4c-2.257 0-4.42.896-6.016 2.492L0 14.19v3.524c0 2.49 1.07 4.73 2.774 6.285A8.5 8.5 0 0 0 0 30.285v3.524l7.699 7.7A8.507 8.507 0 0 0 20 41.225a8.51 8.51 0 0 0 12.301.282L40 33.81v-3.524c0-2.49-1.07-4.73-2.774-6.285A8.5 8.5 0 0 0 40 17.715V14.19l-7.699-7.7A8.51 8.51 0 0 0 20 6.775 8.5 8.5 0 0 0 13.715 4m12.044 20a9 9 0 0 1-.282-.27L20 18.254l-5.477 5.476a9 9 0 0 1-.282.27q.144.131.282.27L20 29.746l5.477-5.476q.138-.139.282-.27m-3.537 9.81v1.682a4.063 4.063 0 0 0 6.937 2.874l6.397-6.398v-1.683a4.063 4.063 0 0 0-6.937-2.873zm-4.444 0-6.397-6.398a4.063 4.063 0 0 0-6.937 2.873v1.683l6.397 6.397a4.063 4.063 0 0 0 6.937-2.873zm0-21.302v1.683l-6.397 6.397a4.063 4.063 0 0 1-6.937-2.873v-1.683l6.397-6.397a4.063 4.063 0 0 1 6.937 2.873m10.841 8.08-6.397-6.397v-1.683a4.063 4.063 0 0 1 6.937-2.873l6.397 6.397v1.683a4.063 4.063 0 0 1-6.937 2.873" fill="#000" fill-rule="evenodd"/></svg>
